<mxfile host="app.diagrams.net" modified="2022-04-03T14:58:50.227Z" agent="5.0 (Macintosh; Intel Mac OS X 10_15_7) AppleWebKit/537.36 (KHTML, like Gecko) Chrome/100.0.4896.60 Safari/537.36" etag="ABaqYYmp7m5AQRmoeFP-" version="17.2.4" type="github">
  <diagram id="Hk2XE8P2p9fJhktpBbua" name="Page-1">
    <mxGraphModel dx="946" dy="1547" grid="1" gridSize="10" guides="1" tooltips="1" connect="1" arrows="1" fold="1" page="1" pageScale="1" pageWidth="850" pageHeight="1100" math="0" shadow="0">
      <root>
        <mxCell id="0" />
        <mxCell id="1" parent="0" />
        <mxCell id="bOuW3gJqVX_yY58FgyjO-1" value="" style="rounded=0;whiteSpace=wrap;html=1;" vertex="1" parent="1">
          <mxGeometry x="360" y="-140" width="470" height="680" as="geometry" />
        </mxCell>
        <mxCell id="bOuW3gJqVX_yY58FgyjO-2" value="T-Low food&lt;br style=&quot;font-size: 12px&quot;&gt;delivery system" style="text;html=1;strokeColor=none;fillColor=none;align=center;verticalAlign=middle;whiteSpace=wrap;rounded=0;fontSize=12;" vertex="1" parent="1">
          <mxGeometry x="497.5" y="-170" width="95" height="30" as="geometry" />
        </mxCell>
        <mxCell id="bOuW3gJqVX_yY58FgyjO-3" value="Restaurant" style="shape=umlActor;verticalLabelPosition=bottom;verticalAlign=top;html=1;outlineConnect=0;" vertex="1" parent="1">
          <mxGeometry x="240" y="60" width="30" height="60" as="geometry" />
        </mxCell>
        <mxCell id="bOuW3gJqVX_yY58FgyjO-4" value="Courier" style="shape=umlActor;verticalLabelPosition=bottom;verticalAlign=top;html=1;outlineConnect=0;" vertex="1" parent="1">
          <mxGeometry x="240" y="300" width="30" height="60" as="geometry" />
        </mxCell>
        <mxCell id="bOuW3gJqVX_yY58FgyjO-6" value="System" style="shape=umlActor;verticalLabelPosition=bottom;verticalAlign=top;html=1;outlineConnect=0;" vertex="1" parent="1">
          <mxGeometry x="900" y="50" width="30" height="60" as="geometry" />
        </mxCell>
        <mxCell id="bOuW3gJqVX_yY58FgyjO-7" value="Customer" style="shape=umlActor;verticalLabelPosition=bottom;verticalAlign=top;html=1;outlineConnect=0;" vertex="1" parent="1">
          <mxGeometry x="900" y="-110" width="30" height="60" as="geometry" />
        </mxCell>
        <mxCell id="bOuW3gJqVX_yY58FgyjO-8" value="Process Order" style="ellipse;whiteSpace=wrap;html=1;" vertex="1" parent="1">
          <mxGeometry x="485" y="-120" width="120" height="80" as="geometry" />
        </mxCell>
        <mxCell id="bOuW3gJqVX_yY58FgyjO-10" value="" style="endArrow=classic;html=1;rounded=0;exitX=1;exitY=0.3333333333333333;exitDx=0;exitDy=0;exitPerimeter=0;" edge="1" parent="1" source="bOuW3gJqVX_yY58FgyjO-3" target="bOuW3gJqVX_yY58FgyjO-8">
          <mxGeometry width="50" height="50" relative="1" as="geometry">
            <mxPoint x="530" y="160" as="sourcePoint" />
            <mxPoint x="580" y="110" as="targetPoint" />
          </mxGeometry>
        </mxCell>
        <mxCell id="bOuW3gJqVX_yY58FgyjO-11" value="Update Order Status" style="ellipse;whiteSpace=wrap;html=1;" vertex="1" parent="1">
          <mxGeometry x="470" y="40" width="120" height="80" as="geometry" />
        </mxCell>
        <mxCell id="bOuW3gJqVX_yY58FgyjO-12" value="" style="endArrow=classic;html=1;rounded=0;exitX=1;exitY=0.3333333333333333;exitDx=0;exitDy=0;exitPerimeter=0;entryX=0;entryY=0.5;entryDx=0;entryDy=0;" edge="1" parent="1" source="bOuW3gJqVX_yY58FgyjO-3" target="bOuW3gJqVX_yY58FgyjO-11">
          <mxGeometry width="50" height="50" relative="1" as="geometry">
            <mxPoint x="530" y="160" as="sourcePoint" />
            <mxPoint x="580" y="110" as="targetPoint" />
          </mxGeometry>
        </mxCell>
        <mxCell id="bOuW3gJqVX_yY58FgyjO-13" value="" style="endArrow=classic;html=1;rounded=0;exitX=0;exitY=0.3333333333333333;exitDx=0;exitDy=0;exitPerimeter=0;entryX=1;entryY=0.5;entryDx=0;entryDy=0;" edge="1" parent="1" source="bOuW3gJqVX_yY58FgyjO-6" target="bOuW3gJqVX_yY58FgyjO-11">
          <mxGeometry width="50" height="50" relative="1" as="geometry">
            <mxPoint x="530" y="210" as="sourcePoint" />
            <mxPoint x="580" y="160" as="targetPoint" />
          </mxGeometry>
        </mxCell>
        <mxCell id="bOuW3gJqVX_yY58FgyjO-14" value="Prepare Food Bag" style="ellipse;whiteSpace=wrap;html=1;" vertex="1" parent="1">
          <mxGeometry x="390" y="160" width="120" height="80" as="geometry" />
        </mxCell>
        <mxCell id="bOuW3gJqVX_yY58FgyjO-15" value="" style="endArrow=classic;html=1;rounded=0;entryX=0;entryY=0.5;entryDx=0;entryDy=0;" edge="1" parent="1" target="bOuW3gJqVX_yY58FgyjO-14">
          <mxGeometry width="50" height="50" relative="1" as="geometry">
            <mxPoint x="270" y="80" as="sourcePoint" />
            <mxPoint x="580" y="200" as="targetPoint" />
          </mxGeometry>
        </mxCell>
        <mxCell id="bOuW3gJqVX_yY58FgyjO-16" value="Update Delivery List" style="ellipse;whiteSpace=wrap;html=1;" vertex="1" parent="1">
          <mxGeometry x="550" y="140" width="120" height="80" as="geometry" />
        </mxCell>
        <mxCell id="bOuW3gJqVX_yY58FgyjO-17" value="New Delivery Notification" style="ellipse;whiteSpace=wrap;html=1;" vertex="1" parent="1">
          <mxGeometry x="550" y="290" width="120" height="80" as="geometry" />
        </mxCell>
        <mxCell id="bOuW3gJqVX_yY58FgyjO-18" value="" style="endArrow=classic;html=1;rounded=0;entryX=1;entryY=0.5;entryDx=0;entryDy=0;exitX=0;exitY=0.3333333333333333;exitDx=0;exitDy=0;exitPerimeter=0;" edge="1" parent="1" source="bOuW3gJqVX_yY58FgyjO-6" target="bOuW3gJqVX_yY58FgyjO-16">
          <mxGeometry width="50" height="50" relative="1" as="geometry">
            <mxPoint x="830" y="80" as="sourcePoint" />
            <mxPoint x="700" y="190" as="targetPoint" />
          </mxGeometry>
        </mxCell>
        <mxCell id="bOuW3gJqVX_yY58FgyjO-19" value="" style="endArrow=classic;html=1;rounded=0;entryX=0.983;entryY=0.381;entryDx=0;entryDy=0;entryPerimeter=0;exitX=0;exitY=0.3333333333333333;exitDx=0;exitDy=0;exitPerimeter=0;" edge="1" parent="1" source="bOuW3gJqVX_yY58FgyjO-6" target="bOuW3gJqVX_yY58FgyjO-17">
          <mxGeometry width="50" height="50" relative="1" as="geometry">
            <mxPoint x="830" y="80" as="sourcePoint" />
            <mxPoint x="700" y="290" as="targetPoint" />
          </mxGeometry>
        </mxCell>
        <mxCell id="bOuW3gJqVX_yY58FgyjO-20" value="" style="html=1;labelBackgroundColor=#ffffff;startArrow=none;startFill=0;startSize=6;endArrow=classic;endFill=1;endSize=6;jettySize=auto;orthogonalLoop=1;strokeWidth=1;dashed=1;fontSize=14;rounded=0;exitX=0.5;exitY=1;exitDx=0;exitDy=0;" edge="1" parent="1" source="bOuW3gJqVX_yY58FgyjO-8" target="bOuW3gJqVX_yY58FgyjO-11">
          <mxGeometry width="60" height="60" relative="1" as="geometry">
            <mxPoint x="640" y="120" as="sourcePoint" />
            <mxPoint x="700" y="60" as="targetPoint" />
          </mxGeometry>
        </mxCell>
        <mxCell id="bOuW3gJqVX_yY58FgyjO-21" value="&lt;font style=&quot;font-size: 12px&quot;&gt;&amp;lt;&amp;lt;include&amp;gt;&amp;gt;&lt;/font&gt;" style="edgeLabel;html=1;align=center;verticalAlign=middle;resizable=0;points=[];fontSize=13;" vertex="1" connectable="0" parent="bOuW3gJqVX_yY58FgyjO-20">
          <mxGeometry x="-0.0375" y="2" relative="1" as="geometry">
            <mxPoint as="offset" />
          </mxGeometry>
        </mxCell>
        <mxCell id="bOuW3gJqVX_yY58FgyjO-22" value="" style="html=1;labelBackgroundColor=#ffffff;startArrow=none;startFill=0;startSize=6;endArrow=classic;endFill=1;endSize=6;jettySize=auto;orthogonalLoop=1;strokeWidth=1;dashed=1;fontSize=14;rounded=0;exitX=0;exitY=1;exitDx=0;exitDy=0;entryX=0.5;entryY=0;entryDx=0;entryDy=0;" edge="1" parent="1" source="bOuW3gJqVX_yY58FgyjO-11" target="bOuW3gJqVX_yY58FgyjO-14">
          <mxGeometry width="60" height="60" relative="1" as="geometry">
            <mxPoint x="544" y="130" as="sourcePoint" />
            <mxPoint x="430" y="200" as="targetPoint" />
          </mxGeometry>
        </mxCell>
        <mxCell id="bOuW3gJqVX_yY58FgyjO-23" value="&lt;font style=&quot;font-size: 12px&quot;&gt;&amp;lt;&amp;lt;include&amp;gt;&amp;gt;&lt;/font&gt;" style="edgeLabel;html=1;align=center;verticalAlign=middle;resizable=0;points=[];fontSize=13;" vertex="1" connectable="0" parent="bOuW3gJqVX_yY58FgyjO-22">
          <mxGeometry x="-0.0375" y="2" relative="1" as="geometry">
            <mxPoint as="offset" />
          </mxGeometry>
        </mxCell>
        <mxCell id="bOuW3gJqVX_yY58FgyjO-25" value="" style="endArrow=classic;html=1;rounded=0;fontSize=12;exitX=1;exitY=0.3333333333333333;exitDx=0;exitDy=0;exitPerimeter=0;entryX=0;entryY=0.5;entryDx=0;entryDy=0;" edge="1" parent="1" source="bOuW3gJqVX_yY58FgyjO-4" target="bOuW3gJqVX_yY58FgyjO-17">
          <mxGeometry width="50" height="50" relative="1" as="geometry">
            <mxPoint x="650" y="440" as="sourcePoint" />
            <mxPoint x="700" y="390" as="targetPoint" />
          </mxGeometry>
        </mxCell>
        <mxCell id="bOuW3gJqVX_yY58FgyjO-26" value="" style="html=1;labelBackgroundColor=#ffffff;startArrow=none;startFill=0;startSize=6;endArrow=classic;endFill=1;endSize=6;jettySize=auto;orthogonalLoop=1;strokeWidth=1;dashed=1;fontSize=14;rounded=0;exitX=0.5;exitY=1;exitDx=0;exitDy=0;entryX=0.5;entryY=0;entryDx=0;entryDy=0;" edge="1" parent="1" source="bOuW3gJqVX_yY58FgyjO-16" target="bOuW3gJqVX_yY58FgyjO-17">
          <mxGeometry width="60" height="60" relative="1" as="geometry">
            <mxPoint x="612.5735931288073" y="270.00427124746193" as="sourcePoint" />
            <mxPoint x="540" y="351.72" as="targetPoint" />
          </mxGeometry>
        </mxCell>
        <mxCell id="bOuW3gJqVX_yY58FgyjO-27" value="&lt;font style=&quot;font-size: 12px&quot;&gt;&amp;lt;&amp;lt;include&amp;gt;&amp;gt;&lt;/font&gt;" style="edgeLabel;html=1;align=center;verticalAlign=middle;resizable=0;points=[];fontSize=13;" vertex="1" connectable="0" parent="bOuW3gJqVX_yY58FgyjO-26">
          <mxGeometry x="-0.0375" y="2" relative="1" as="geometry">
            <mxPoint as="offset" />
          </mxGeometry>
        </mxCell>
        <mxCell id="bOuW3gJqVX_yY58FgyjO-28" value="View Available delivery" style="ellipse;whiteSpace=wrap;html=1;fontSize=12;" vertex="1" parent="1">
          <mxGeometry x="550" y="440" width="120" height="80" as="geometry" />
        </mxCell>
        <mxCell id="bOuW3gJqVX_yY58FgyjO-29" value="" style="endArrow=classic;html=1;rounded=0;fontSize=12;exitX=1;exitY=0.3333333333333333;exitDx=0;exitDy=0;exitPerimeter=0;entryX=0;entryY=0.5;entryDx=0;entryDy=0;" edge="1" parent="1" source="bOuW3gJqVX_yY58FgyjO-4" target="bOuW3gJqVX_yY58FgyjO-28">
          <mxGeometry width="50" height="50" relative="1" as="geometry">
            <mxPoint x="650" y="520" as="sourcePoint" />
            <mxPoint x="700" y="470" as="targetPoint" />
          </mxGeometry>
        </mxCell>
        <mxCell id="bOuW3gJqVX_yY58FgyjO-30" value="" style="html=1;labelBackgroundColor=#ffffff;startArrow=none;startFill=0;startSize=6;endArrow=classic;endFill=1;endSize=6;jettySize=auto;orthogonalLoop=1;strokeWidth=1;dashed=1;fontSize=14;rounded=0;exitX=0.5;exitY=1;exitDx=0;exitDy=0;entryX=0.5;entryY=0;entryDx=0;entryDy=0;" edge="1" parent="1" source="bOuW3gJqVX_yY58FgyjO-17" target="bOuW3gJqVX_yY58FgyjO-28">
          <mxGeometry width="60" height="60" relative="1" as="geometry">
            <mxPoint x="599.5" y="420" as="sourcePoint" />
            <mxPoint x="599.5" y="480" as="targetPoint" />
          </mxGeometry>
        </mxCell>
        <mxCell id="bOuW3gJqVX_yY58FgyjO-31" value="&lt;font style=&quot;font-size: 12px&quot;&gt;&amp;lt;&amp;lt;include&amp;gt;&amp;gt;&lt;/font&gt;" style="edgeLabel;html=1;align=center;verticalAlign=middle;resizable=0;points=[];fontSize=13;" vertex="1" connectable="0" parent="bOuW3gJqVX_yY58FgyjO-30">
          <mxGeometry x="-0.0375" y="2" relative="1" as="geometry">
            <mxPoint as="offset" />
          </mxGeometry>
        </mxCell>
        <mxCell id="bOuW3gJqVX_yY58FgyjO-32" style="edgeStyle=orthogonalEdgeStyle;rounded=0;orthogonalLoop=1;jettySize=auto;html=1;exitX=0.5;exitY=1;exitDx=0;exitDy=0;fontSize=12;" edge="1" parent="1" source="bOuW3gJqVX_yY58FgyjO-28" target="bOuW3gJqVX_yY58FgyjO-28">
          <mxGeometry relative="1" as="geometry" />
        </mxCell>
        <mxCell id="bOuW3gJqVX_yY58FgyjO-36" value="View Updated Order Status" style="ellipse;whiteSpace=wrap;html=1;fontSize=12;" vertex="1" parent="1">
          <mxGeometry x="680" y="-60" width="120" height="80" as="geometry" />
        </mxCell>
        <mxCell id="bOuW3gJqVX_yY58FgyjO-37" value="" style="endArrow=classic;html=1;rounded=0;fontSize=12;exitX=0;exitY=0.3333333333333333;exitDx=0;exitDy=0;exitPerimeter=0;entryX=1;entryY=0;entryDx=0;entryDy=0;" edge="1" parent="1" source="bOuW3gJqVX_yY58FgyjO-7" target="bOuW3gJqVX_yY58FgyjO-36">
          <mxGeometry width="50" height="50" relative="1" as="geometry">
            <mxPoint x="680" y="-60" as="sourcePoint" />
            <mxPoint x="730" y="-110" as="targetPoint" />
          </mxGeometry>
        </mxCell>
        <mxCell id="bOuW3gJqVX_yY58FgyjO-38" value="" style="html=1;labelBackgroundColor=#ffffff;startArrow=none;startFill=0;startSize=6;endArrow=classic;endFill=1;endSize=6;jettySize=auto;orthogonalLoop=1;strokeWidth=1;dashed=1;fontSize=14;rounded=0;" edge="1" parent="1" source="bOuW3gJqVX_yY58FgyjO-11" target="bOuW3gJqVX_yY58FgyjO-36">
          <mxGeometry width="60" height="60" relative="1" as="geometry">
            <mxPoint x="630" as="sourcePoint" />
            <mxPoint x="630" y="60" as="targetPoint" />
          </mxGeometry>
        </mxCell>
        <mxCell id="bOuW3gJqVX_yY58FgyjO-39" value="&lt;font style=&quot;font-size: 12px&quot;&gt;&amp;lt;&amp;lt;extend&amp;gt;&amp;gt;&lt;/font&gt;" style="edgeLabel;html=1;align=center;verticalAlign=middle;resizable=0;points=[];fontSize=13;" vertex="1" connectable="0" parent="bOuW3gJqVX_yY58FgyjO-38">
          <mxGeometry x="-0.0375" y="2" relative="1" as="geometry">
            <mxPoint as="offset" />
          </mxGeometry>
        </mxCell>
      </root>
    </mxGraphModel>
  </diagram>
</mxfile>
